# xmcd CD database file
#
# Track frame offsets:
#	150
#	17375
#	38520
#	58910
#	77992
#	98047
#	118562
#	136987
#	153117
#	171137
#	188270
#
# Disc length: 2773 seconds
#
# Revision: 1
# Processed by: cddbd v1.5.2PL0 Copyright (c) Steve Scherf et al.
# Submitted via: CDex 1.51
#
DISCID=780ad30b
DTITLE=王菲 - 十萬個為什麼
DYEAR=1993
DGENRE=國語流行
TTITLE0=流非飛
TTITLE1=Summer Of Love 
TTITLE2=如風 
TTITLE3=冷戰 
TTITLE4=長大
TTITLE5=若你真愛我
TTITLE6=動心
TTITLE7=雨天沒有你 
TTITLE8=誘惑我
TTITLE9=Do Do Da Da
TTITLE10=Faye Wong - Do We Really Care?
EXTD=YEAR: 1993
EXTT0=
EXTT1=
EXTT2=
EXTT3=
EXTT4=
EXTT5=
EXTT6=
EXTT7=
EXTT8=
EXTT9=
EXTT10=
PLAYORDER=
